<svg width="24" height="25" viewBox="0 0 24 25" fill="none" xmlns="http://www.w3.org/2000/svg">
<path fill-rule="evenodd" clip-rule="evenodd" d="M7.05273 0.672037C8.33236 0.613128 8.74037 0.600037 12 0.600037C15.2596 0.600037 15.6676 0.614218 16.9462 0.672037C18.2247 0.729855 19.0975 0.933855 19.8611 1.22949C20.6607 1.53167 21.3862 2.00404 21.9862 2.61495C22.5971 3.21385 23.0684 3.93822 23.3695 4.73895C23.6662 5.50258 23.8691 6.37531 23.928 7.65167C23.9869 8.93349 24 9.34149 24 12.6C24 15.8597 23.9858 16.2677 23.928 17.5473C23.8702 18.8237 23.6662 19.6964 23.3695 20.46C23.0684 21.2609 22.5963 21.9864 21.9862 22.5862C21.3862 23.1971 20.6607 23.6684 19.8611 23.9695C19.0975 24.2662 18.2247 24.4691 16.9484 24.528C15.6676 24.5869 15.2596 24.6 12 24.6C8.74037 24.6 8.33236 24.5859 7.05273 24.528C5.77636 24.4702 4.90364 24.2662 4.14 23.9695C3.33919 23.6684 2.61362 23.1963 2.01382 22.5862C1.40332 21.9869 0.930889 21.2617 0.629455 20.4611C0.333818 19.6975 0.130909 18.8248 0.072 17.5484C0.0130909 16.2666 0 15.8586 0 12.6C0 9.3404 0.0141818 8.9324 0.072 7.65386C0.129818 6.37531 0.333818 5.50258 0.629455 4.73895C0.931334 3.93831 1.40413 3.21311 2.01491 2.61385C2.61386 2.00349 3.3387 1.53107 4.13891 1.22949C4.90255 0.933855 5.77527 0.730946 7.05164 0.672037H7.05273ZM16.8491 2.83204C15.5836 2.77422 15.204 2.76222 12 2.76222C8.796 2.76222 8.41636 2.77422 7.15091 2.83204C5.98036 2.88549 5.34546 3.08076 4.92218 3.24549C4.36255 3.46367 3.96218 3.72222 3.54218 4.14222C3.14405 4.52955 2.83765 5.00107 2.64545 5.52222C2.48073 5.94549 2.28545 6.5804 2.232 7.75095C2.17418 9.0164 2.16218 9.39604 2.16218 12.6C2.16218 15.804 2.17418 16.1837 2.232 17.4491C2.28545 18.6197 2.48073 19.2546 2.64545 19.6779C2.83745 20.1982 3.144 20.6706 3.54218 21.0579C3.92946 21.456 4.40182 21.7626 4.92218 21.9546C5.34546 22.1193 5.98036 22.3146 7.15091 22.368C8.41636 22.4259 8.79491 22.4379 12 22.4379C15.2051 22.4379 15.5836 22.4259 16.8491 22.368C18.0196 22.3146 18.6545 22.1193 19.0778 21.9546C19.6375 21.7364 20.0378 21.4779 20.4578 21.0579C20.856 20.6706 21.1625 20.1982 21.3545 19.6779C21.5193 19.2546 21.7145 18.6197 21.768 17.4491C21.8258 16.1837 21.8378 15.804 21.8378 12.6C21.8378 9.39604 21.8258 9.0164 21.768 7.75095C21.7145 6.5804 21.5193 5.94549 21.3545 5.52222C21.1364 4.96258 20.8778 4.56222 20.4578 4.14222C20.0705 3.74411 19.5989 3.43772 19.0778 3.24549C18.6545 3.08076 18.0196 2.88549 16.8491 2.83204ZM10.4673 16.2993C11.3233 16.6556 12.2764 16.7037 13.1639 16.4354C14.0514 16.167 14.8182 15.5989 15.3334 14.8279C15.8485 14.057 16.0801 13.1312 15.9884 12.2085C15.8968 11.2859 15.4876 10.4236 14.8309 9.76913C14.4123 9.35074 13.9061 9.03038 13.3487 8.83111C12.7914 8.63184 12.1968 8.55861 11.6078 8.61671C11.0188 8.6748 10.45 8.86278 9.94233 9.16709C9.43468 9.4714 9.00081 9.88449 8.67197 10.3766C8.34312 10.8687 8.12748 11.4276 8.04056 12.0131C7.95365 12.5985 7.99762 13.196 8.16932 13.7624C8.34101 14.3288 8.63616 14.8502 9.03351 15.2888C9.43087 15.7275 9.92054 16.0726 10.4673 16.2993ZM7.63855 8.23858C8.2113 7.66583 8.89126 7.21149 9.6396 6.90152C10.3879 6.59155 11.19 6.43201 12 6.43201C12.81 6.43201 13.6121 6.59155 14.3604 6.90152C15.1087 7.21149 15.7887 7.66583 16.3615 8.23858C16.9342 8.81134 17.3885 9.4913 17.6985 10.2396C18.0085 10.988 18.168 11.79 18.168 12.6C18.168 13.41 18.0085 14.2121 17.6985 14.9604C17.3885 15.7088 16.9342 16.3887 16.3615 16.9615C15.2047 18.1182 13.6359 18.7681 12 18.7681C10.3641 18.7681 8.79528 18.1182 7.63855 16.9615C6.48182 15.8048 5.83197 14.2359 5.83197 12.6C5.83197 10.9642 6.48182 9.39531 7.63855 8.23858ZM19.536 7.35058C19.6779 7.21669 19.7916 7.05569 19.8702 6.8771C19.9487 6.69851 19.9907 6.50597 19.9935 6.31087C19.9964 6.11577 19.9601 5.92209 19.8867 5.74128C19.8134 5.56048 19.7045 5.39623 19.5665 5.25826C19.4285 5.12029 19.2643 5.01141 19.0835 4.93806C18.9027 4.8647 18.709 4.82837 18.5139 4.83122C18.3188 4.83406 18.1263 4.87602 17.9477 4.95461C17.7691 5.03321 17.6081 5.14683 17.4742 5.28876C17.2138 5.5648 17.0712 5.93144 17.0768 6.31087C17.0823 6.6903 17.2355 7.05263 17.5038 7.32096C17.7721 7.58928 18.1345 7.74247 18.5139 7.748C18.8933 7.75353 19.26 7.61097 19.536 7.35058Z" fill="#2A3230"/>
</svg>
