<svg width="40" height="40" viewBox="0 0 40 40" fill="none" xmlns="http://www.w3.org/2000/svg">
<path fill-rule="evenodd" clip-rule="evenodd" d="M4.94654e-07 3.34184C4.94654e-07 2.45553 0.352084 1.60553 0.978796 0.978815C1.60551 0.352103 2.45551 1.97139e-05 3.34182 1.97139e-05H36.6545C37.0938 -0.000697653 37.5288 0.085225 37.9348 0.252868C38.3408 0.420511 38.7097 0.666583 39.0204 0.976995C39.3312 1.28741 39.5777 1.65606 39.7458 2.06186C39.9138 2.46765 40.0002 2.90261 40 3.34184V36.6546C40.0005 37.0939 39.9143 37.529 39.7465 37.935C39.5786 38.3409 39.3324 38.7099 39.0218 39.0206C38.7113 39.3313 38.3425 39.5777 37.9366 39.7458C37.5307 39.9139 37.0957 40.0003 36.6564 40H3.34182C2.90281 40 2.46811 39.9135 2.06254 39.7455C1.65697 39.5774 1.28849 39.3311 0.978153 39.0206C0.667813 38.7101 0.421694 38.3415 0.253859 37.9358C0.0860241 37.5301 -0.000238356 37.0954 4.94654e-07 36.6564V3.34184ZM15.8327 15.2509H21.2491V17.9709C22.0309 16.4073 24.0309 15 27.0364 15C32.7982 15 34.1636 18.1146 34.1636 23.8291V34.4146H28.3327V25.1309C28.3327 21.8764 27.5509 20.04 25.5655 20.04C22.8109 20.04 21.6655 22.02 21.6655 25.1309V34.4146H15.8327V15.2509ZM5.83273 34.1655H11.6655V15H5.83273V34.1655ZM12.5 8.74911C12.511 9.24851 12.4221 9.74509 12.2386 10.2097C12.0551 10.6743 11.7806 11.0975 11.4313 11.4546C11.082 11.8117 10.6649 12.0954 10.2045 12.2891C9.74402 12.4828 9.24953 12.5826 8.75 12.5826C8.25047 12.5826 7.75598 12.4828 7.29554 12.2891C6.83509 12.0954 6.41798 11.8117 6.06867 11.4546C5.71936 11.0975 5.4449 10.6743 5.26138 10.2097C5.07787 9.74509 4.989 9.24851 5 8.74911C5.02159 7.76885 5.42615 6.836 6.12706 6.15036C6.82797 5.46471 7.7695 5.08078 8.75 5.08078C9.7305 5.08078 10.672 5.46471 11.3729 6.15036C12.0738 6.836 12.4784 7.76885 12.5 8.74911Z" fill="white"/>
</svg>
