<svg width="240" height="60" viewBox="0 0 240 60" fill="none" xmlns="http://www.w3.org/2000/svg">
<rect width="60" height="60" fill="#2F2F2F"/>
<path d="M0 0H60V60L30 29.5L0 0Z" fill="white"/>
<path d="M0 30H30V60L15 44.75L0 30Z" fill="white"/>
<rect x="60" width="60" height="60" fill="#D22542"/>
<rect x="120" width="60" height="60" fill="#2A3230"/>
<rect x="120" width="30" height="30" fill="white"/>
<rect x="150" y="30" width="30" height="30" fill="white"/>
<rect x="180" width="30" height="60" fill="#D72340"/>
<rect x="60" y="30" width="30" height="30" fill="white"/>
<rect x="67" y="38" width="15" height="15" fill="#D22542"/>
<rect x="180" y="30" width="42.4264" height="42.4264" transform="rotate(-45 180 30)" fill="white"/>
<rect x="197.914" y="30" width="16.9706" height="16.9706" transform="rotate(-45 197.914 30)" fill="#D6233E"/>
<circle cx="124.818" cy="4.81818" r="1.81818" fill="#2A3230"/>
<circle cx="124.818" cy="11.4545" r="1.81818" fill="#2A3230"/>
<circle cx="124.818" cy="18.0909" r="1.81818" fill="#2A3230"/>
<circle cx="124.818" cy="24.7273" r="1.81818" fill="#2A3230"/>
<circle cx="138.091" cy="4.81818" r="1.81818" fill="#2A3230"/>
<circle cx="138.091" cy="11.4545" r="1.81818" fill="#2A3230"/>
<circle cx="138.091" cy="18.0909" r="1.81818" fill="#2A3230"/>
<circle cx="138.091" cy="24.7273" r="1.81818" fill="#2A3230"/>
<circle cx="131.454" cy="4.81818" r="1.81818" fill="#2A3230"/>
<circle cx="131.454" cy="11.4545" r="1.81818" fill="#2A3230"/>
<circle cx="131.454" cy="18.0909" r="1.81818" fill="#2A3230"/>
<circle cx="131.454" cy="24.7273" r="1.81818" fill="#2A3230"/>
<circle cx="144.727" cy="4.81818" r="1.81818" fill="#2A3230"/>
<circle cx="144.727" cy="11.4545" r="1.81818" fill="#2A3230"/>
<circle cx="144.727" cy="18.0909" r="1.81818" fill="#2A3230"/>
<circle cx="144.727" cy="24.7273" r="1.81818" fill="#2A3230"/>
<circle cx="154.818" cy="34.8182" r="1.81818" fill="#2A3230"/>
<circle cx="154.818" cy="41.4545" r="1.81818" fill="#2A3230"/>
<circle cx="154.818" cy="48.0909" r="1.81818" fill="#2A3230"/>
<circle cx="154.818" cy="54.7273" r="1.81818" fill="#2A3230"/>
<circle cx="168.091" cy="34.8182" r="1.81818" fill="#2A3230"/>
<circle cx="168.091" cy="41.4545" r="1.81818" fill="#2A3230"/>
<circle cx="168.091" cy="48.0909" r="1.81818" fill="#2A3230"/>
<circle cx="168.091" cy="54.7273" r="1.81818" fill="#2A3230"/>
<circle cx="161.454" cy="34.8182" r="1.81818" fill="#2A3230"/>
<circle cx="161.454" cy="41.4545" r="1.81818" fill="#2A3230"/>
<circle cx="161.454" cy="48.0909" r="1.81818" fill="#2A3230"/>
<circle cx="161.454" cy="54.7273" r="1.81818" fill="#2A3230"/>
<circle cx="174.727" cy="34.8182" r="1.81818" fill="#2A3230"/>
<circle cx="174.727" cy="41.4545" r="1.81818" fill="#2A3230"/>
<circle cx="174.727" cy="48.0909" r="1.81818" fill="#2A3230"/>
<circle cx="174.727" cy="54.7273" r="1.81818" fill="#2A3230"/>
</svg>
