<svg width="240" height="60" viewBox="0 0 240 60" fill="none" xmlns="http://www.w3.org/2000/svg">
<rect width="60" height="60" transform="matrix(-1 0 0 1 240 0)" fill="#2A3230"/>
<path d="M240 0H180V60L210 29.5L240 0Z" fill="white"/>
<path d="M240 30H210V60L225 44.75L240 30Z" fill="white"/>
<rect width="60" height="60" transform="matrix(-1 0 0 1 180 0)" fill="#D22542"/>
<rect width="60" height="60" transform="matrix(-1 0 0 1 120 0)" fill="#2A3230"/>
<rect width="30" height="30" transform="matrix(-1 0 0 1 120 0)" fill="white"/>
<rect width="30" height="30" transform="matrix(-1 0 0 1 90 30)" fill="white"/>
<rect width="30" height="60" transform="matrix(-1 0 0 1 60 0)" fill="#D72340"/>
<rect width="30" height="30" transform="matrix(-1 0 0 1 180 30)" fill="white"/>
<rect width="15" height="15" transform="matrix(-1 0 0 1 173 38)" fill="#D22542"/>
<rect width="42.4264" height="42.4264" transform="matrix(-0.707107 -0.707107 -0.707107 0.707107 60 30)" fill="white"/>
<rect width="16.9706" height="16.9706" transform="matrix(-0.707107 -0.707107 -0.707107 0.707107 42.0864 30)" fill="#D6233E"/>
<circle r="1.81818" transform="matrix(-1 0 0 1 115.182 4.81818)" fill="#2A3230"/>
<circle r="1.81818" transform="matrix(-1 0 0 1 115.182 11.4545)" fill="#2A3230"/>
<circle r="1.81818" transform="matrix(-1 0 0 1 115.182 18.0909)" fill="#2A3230"/>
<circle r="1.81818" transform="matrix(-1 0 0 1 115.182 24.7273)" fill="#2A3230"/>
<circle r="1.81818" transform="matrix(-1 0 0 1 101.909 4.81818)" fill="#2A3230"/>
<circle r="1.81818" transform="matrix(-1 0 0 1 101.909 11.4545)" fill="#2A3230"/>
<circle r="1.81818" transform="matrix(-1 0 0 1 101.909 18.0909)" fill="#2A3230"/>
<circle r="1.81818" transform="matrix(-1 0 0 1 101.909 24.7273)" fill="#2A3230"/>
<circle r="1.81818" transform="matrix(-1 0 0 1 108.546 4.81818)" fill="#2A3230"/>
<circle r="1.81818" transform="matrix(-1 0 0 1 108.546 11.4545)" fill="#2A3230"/>
<circle r="1.81818" transform="matrix(-1 0 0 1 108.546 18.0909)" fill="#2A3230"/>
<circle r="1.81818" transform="matrix(-1 0 0 1 108.546 24.7273)" fill="#2A3230"/>
<circle r="1.81818" transform="matrix(-1 0 0 1 95.2726 4.81818)" fill="#2A3230"/>
<circle r="1.81818" transform="matrix(-1 0 0 1 95.2726 11.4545)" fill="#2A3230"/>
<circle r="1.81818" transform="matrix(-1 0 0 1 95.2726 18.0909)" fill="#2A3230"/>
<circle r="1.81818" transform="matrix(-1 0 0 1 95.2726 24.7273)" fill="#2A3230"/>
<circle r="1.81818" transform="matrix(-1 0 0 1 85.1818 34.8182)" fill="#2A3230"/>
<circle r="1.81818" transform="matrix(-1 0 0 1 85.1818 41.4545)" fill="#2A3230"/>
<circle r="1.81818" transform="matrix(-1 0 0 1 85.1818 48.0909)" fill="#2A3230"/>
<circle r="1.81818" transform="matrix(-1 0 0 1 85.1818 54.7273)" fill="#2A3230"/>
<circle r="1.81818" transform="matrix(-1 0 0 1 71.9089 34.8182)" fill="#2A3230"/>
<circle r="1.81818" transform="matrix(-1 0 0 1 71.9089 41.4545)" fill="#2A3230"/>
<circle r="1.81818" transform="matrix(-1 0 0 1 71.9089 48.0909)" fill="#2A3230"/>
<circle r="1.81818" transform="matrix(-1 0 0 1 71.9089 54.7273)" fill="#2A3230"/>
<circle r="1.81818" transform="matrix(-1 0 0 1 78.5456 34.8182)" fill="#2A3230"/>
<circle r="1.81818" transform="matrix(-1 0 0 1 78.5456 41.4545)" fill="#2A3230"/>
<circle r="1.81818" transform="matrix(-1 0 0 1 78.5456 48.0909)" fill="#2A3230"/>
<circle r="1.81818" transform="matrix(-1 0 0 1 78.5456 54.7273)" fill="#2A3230"/>
<circle r="1.81818" transform="matrix(-1 0 0 1 65.2726 34.8182)" fill="#2A3230"/>
<circle r="1.81818" transform="matrix(-1 0 0 1 65.2726 41.4545)" fill="#2A3230"/>
<circle r="1.81818" transform="matrix(-1 0 0 1 65.2726 48.0909)" fill="#2A3230"/>
<circle r="1.81818" transform="matrix(-1 0 0 1 65.2726 54.7273)" fill="#2A3230"/>
</svg>
