<svg width="40" height="36" viewBox="0 0 40 36" fill="none" xmlns="http://www.w3.org/2000/svg">
<path d="M40 4.27027C38.529 4.99189 36.9488 5.47947 35.2876 5.69986C37.0017 4.56437 38.2841 2.77724 38.8954 0.671936C37.285 1.73094 35.5225 2.47636 33.6845 2.8758C32.4485 1.41474 30.8113 0.446335 29.0273 0.12092C27.2432 -0.204495 25.412 0.131291 23.8179 1.07614C22.2239 2.021 20.9562 3.52206 20.2117 5.34627C19.4672 7.17049 19.2875 9.21579 19.7005 11.1646C16.4374 10.9833 13.2452 10.0443 10.3311 8.40866C7.41693 6.77304 4.84602 4.47732 2.78517 1.6705C2.08051 3.01622 1.67533 4.57647 1.67533 6.23814C1.67454 7.73403 2.00728 9.207 2.64402 10.5264C3.28076 11.8457 4.20182 12.9707 5.32546 13.8015C4.02233 13.7556 2.74795 13.3657 1.60839 12.6644V12.7815C1.60825 14.8795 2.26378 16.913 3.46372 18.5368C4.66367 20.1607 6.33413 21.275 8.19167 21.6905C6.9828 22.0527 5.71538 22.1061 4.48516 21.8465C5.00924 23.6518 6.03012 25.2304 7.40486 26.3614C8.7796 27.4924 10.4394 28.1191 12.1519 28.1539C9.24484 30.6803 5.65469 32.0508 1.95895 32.0448C1.30429 32.0449 0.650183 32.0026 0 31.918C3.75139 34.5883 8.11828 36.0055 12.5782 36C27.6755 36 35.9288 22.1566 35.9288 10.1505C35.9288 9.76042 35.92 9.36645 35.9042 8.97639C37.5095 7.69108 38.8953 6.09947 39.9965 4.27612L40 4.27027Z" fill="white"/>
</svg>
