<svg width="24" height="21" viewBox="0 0 24 21" fill="none" xmlns="http://www.w3.org/2000/svg">
<path d="M24 2.49098C23.1174 2.91193 22.1693 3.19635 21.1726 3.32491C22.201 2.66254 22.9704 1.62005 23.3373 0.391954C22.371 1.00971 21.3135 1.44453 20.2107 1.67754C19.4691 0.825258 18.4868 0.260353 17.4164 0.0705279C16.3459 -0.119297 15.2472 0.0765775 14.2907 0.627742C13.3343 1.17891 12.5737 2.05452 12.127 3.11865C11.6803 4.18277 11.5725 5.37587 11.8203 6.5127C9.86244 6.40689 7.94711 5.85916 6.19863 4.90504C4.45016 3.95093 2.90761 2.61176 1.6711 0.974449C1.2483 1.75945 1.0052 2.6696 1.0052 3.63891C1.00473 4.51151 1.20437 5.37074 1.58641 6.14037C1.96846 6.91001 2.52109 7.56624 3.19528 8.05085C2.4134 8.02408 1.64877 7.79668 0.965031 7.38758V7.45584C0.964953 8.6797 1.35827 9.86589 2.07823 10.8132C2.7982 11.7604 3.80048 12.4104 4.915 12.6528C4.18968 12.8641 3.42923 12.8952 2.6911 12.7438C3.00555 13.7969 3.61807 14.7177 4.44291 15.3775C5.26776 16.0372 6.26363 16.4028 7.29111 16.4231C5.5469 17.8969 3.39282 18.6963 1.17537 18.6928C0.782575 18.6929 0.39011 18.6682 0 18.6188C2.25083 20.1765 4.87097 21.0032 7.5469 21C16.6053 21 21.5573 12.9247 21.5573 5.92111C21.5573 5.69357 21.552 5.46376 21.5425 5.23622C22.5057 4.48645 23.3372 3.55801 23.9979 2.4944L24 2.49098Z" fill="#2A3230"/>
</svg>
